{
	"asset":{
		"generator":"Khronos glTF Blender I/O v3.6.27",
		"version":"2.0"
	},
	"scene":0,
	"scenes":[
		{
			"name":"Scene",
			"nodes":[
				0,
				1,
				2,
				3,
				4,
				5,
				6,
				7,
				8,
				9,
				10,
				11,
				12,
				13,
				14
			]
		}
	],
	"nodes":[
		{
			"mesh":0,
			"name":"Carcasa",
			"scale":[
				7.800000190734863,
				1,
				16.700000762939453
			]
		},
		{
			"mesh":1,
			"name":"Pantalla",
			"scale":[
				7.638006687164307,
				0.32717058062553406,
				16.35317039489746
			],
			"translation":[
				0,
				0.6981317400932312,
				0
			]
		},
		{
			"mesh":2,
			"name":"Circle",
			"scale":[
				-0.27510300278663635,
				-0.27510300278663635,
				-0.27510300278663635
			],
			"translation":[
				0,
				1.0251796245574951,
				15.787897109985352
			]
		},
		{
			"mesh":3,
			"name":"CamaraFront",
			"rotation":[
				-1,
				0,
				0,
				1.6292068494294654e-07
			],
			"scale":[
				0.2750000059604645,
				0.2750000059604645,
				0.2750000059604645
			],
			"translation":[
				0,
				1.0218547582626343,
				15.787897109985352
			]
		},
		{
			"mesh":4,
			"name":"CamaraCirculo",
			"scale":[
				3.7328269481658936,
				0.12362624704837799,
				3.7328269481658936
			],
			"translation":[
				0,
				0.10408570617437363,
				11.411970138549805
			]
		},
		{
			"mesh":5,
			"name":"CamaraRectangulo",
			"scale":[
				3.491091728210449,
				0.09200000017881393,
				2.0837459564208984
			],
			"translation":[
				0,
				-0.05562746152281761,
				11.353118896484375
			]
		},
		{
			"mesh":6,
			"name":"CamaraTras1",
			"scale":[
				0.5540000200271606,
				0.5540000200271606,
				0.5540000200271606
			],
			"translation":[
				-2.285435438156128,
				-0.16668353974819183,
				10.221757888793945
			]
		},
		{
			"mesh":7,
			"name":"CamaraTras2",
			"scale":[
				0.5540000200271606,
				0.5540000200271606,
				0.5540000200271606
			],
			"translation":[
				2.3460705280303955,
				-0.16977423429489136,
				10.221757888793945
			]
		},
		{
			"mesh":8,
			"name":"CamaraTras3",
			"scale":[
				0.5540000200271606,
				0.5540000200271606,
				0.5540000200271606
			],
			"translation":[
				2.3460705280303955,
				-0.16977423429489136,
				12.535589218139648
			]
		},
		{
			"mesh":9,
			"name":"CamaraTras",
			"scale":[
				0.7360000014305115,
				0.7360000014305115,
				0.7360000014305115
			],
			"translation":[
				0.005509138107299805,
				-0.16977423429489136,
				11.417222023010254
			]
		},
		{
			"mesh":10,
			"name":"Flash",
			"rotation":[
				-1,
				0,
				0,
				4.887620548288396e-07
			],
			"scale":[
				0.5540000200271606,
				0.5540000200271606,
				0.5540000200271606
			],
			"translation":[
				-2.285435438156128,
				-0.08969956636428833,
				12.508715629577637
			]
		},
		{
			"mesh":11,
			"name":"Volumen",
			"scale":[
				0.29482316970825195,
				0.1336212009191513,
				2.722301721572876
			],
			"translation":[
				-7.613852024078369,
				0.5180201530456543,
				9.650474548339844
			]
		},
		{
			"mesh":12,
			"name":"Desbloqueo",
			"rotation":[
				0,
				0,
				-1,
				0
			],
			"scale":[
				-0.29482316970825195,
				-0.1336212009191513,
				-0.9508549571037292
			],
			"translation":[
				-7.613852024078369,
				0.5180201530456543,
				3.654203414916992
			]
		},
		{
			"mesh":13,
			"name":"Cube",
			"scale":[
				0.8069848418235779,
				0.2030717134475708,
				0.7995203733444214
			],
			"translation":[
				0,
				0.47135570645332336,
				-15.905714988708496
			]
		},
		{
			"mesh":14,
			"name":"Cargador",
			"scale":[
				0.8069848418235779,
				0.2030717134475708,
				0.7995203733444214
			],
			"translation":[
				0,
				0.47135570645332336,
				-15.905714988708496
			]
		}
	],
	"meshes":[
		{
			"name":"Plane",
			"primitives":[
				{
					"attributes":{
						"POSITION":0,
						"NORMAL":1,
						"TEXCOORD_0":2
					},
					"indices":3
				}
			]
		},
		{
			"name":"Plane.001",
			"primitives":[
				{
					"attributes":{
						"POSITION":4,
						"NORMAL":5,
						"TEXCOORD_0":6
					},
					"indices":3
				}
			]
		},
		{
			"name":"Circle",
			"primitives":[
				{
					"attributes":{
						"POSITION":7,
						"NORMAL":8,
						"TEXCOORD_0":9
					},
					"indices":10
				}
			]
		},
		{
			"name":"Circle.001",
			"primitives":[
				{
					"attributes":{
						"POSITION":11,
						"NORMAL":12,
						"TEXCOORD_0":13
					},
					"indices":14
				}
			]
		},
		{
			"name":"Cylinder",
			"primitives":[
				{
					"attributes":{
						"POSITION":15,
						"NORMAL":16,
						"TEXCOORD_0":17
					},
					"indices":18
				}
			]
		},
		{
			"name":"Cube",
			"primitives":[
				{
					"attributes":{
						"POSITION":19,
						"NORMAL":20,
						"TEXCOORD_0":21
					},
					"indices":22
				}
			]
		},
		{
			"name":"Circle.002",
			"primitives":[
				{
					"attributes":{
						"POSITION":23,
						"NORMAL":24,
						"TEXCOORD_0":25
					},
					"indices":14
				}
			]
		},
		{
			"name":"Circle.003",
			"primitives":[
				{
					"attributes":{
						"POSITION":26,
						"NORMAL":27,
						"TEXCOORD_0":28
					},
					"indices":14
				}
			]
		},
		{
			"name":"Circle.004",
			"primitives":[
				{
					"attributes":{
						"POSITION":29,
						"NORMAL":30,
						"TEXCOORD_0":31
					},
					"indices":14
				}
			]
		},
		{
			"name":"Circle.005",
			"primitives":[
				{
					"attributes":{
						"POSITION":32,
						"NORMAL":33,
						"TEXCOORD_0":34
					},
					"indices":14
				}
			]
		},
		{
			"name":"Circle.006",
			"primitives":[
				{
					"attributes":{
						"POSITION":35,
						"NORMAL":36,
						"TEXCOORD_0":37
					},
					"indices":14
				}
			]
		},
		{
			"name":"Cube.001",
			"primitives":[
				{
					"attributes":{
						"POSITION":38,
						"NORMAL":39,
						"TEXCOORD_0":40
					},
					"indices":41
				}
			]
		},
		{
			"name":"Cube.002",
			"primitives":[
				{
					"attributes":{
						"POSITION":42,
						"NORMAL":43,
						"TEXCOORD_0":44
					},
					"indices":41
				}
			]
		},
		{
			"name":"Cube.003",
			"primitives":[
				{
					"attributes":{
						"POSITION":45,
						"NORMAL":46,
						"TEXCOORD_0":47
					},
					"indices":48
				}
			]
		},
		{
			"name":"Cube.004",
			"primitives":[
				{
					"attributes":{
						"POSITION":49,
						"NORMAL":50,
						"TEXCOORD_0":51
					},
					"indices":52
				}
			]
		}
	],
	"accessors":[
		{
			"bufferView":0,
			"componentType":5126,
			"count":924,
			"max":[
				1,
				1,
				1
			],
			"min":[
				-1,
				0,
				-1
			],
			"type":"VEC3"
		},
		{
			"bufferView":1,
			"componentType":5126,
			"count":924,
			"type":"VEC3"
		},
		{
			"bufferView":2,
			"componentType":5126,
			"count":924,
			"type":"VEC2"
		},
		{
			"bufferView":3,
			"componentType":5123,
			"count":2244,
			"type":"SCALAR"
		},
		{
			"bufferView":4,
			"componentType":5126,
			"count":924,
			"max":[
				1,
				1,
				1
			],
			"min":[
				-1,
				0,
				-1
			],
			"type":"VEC3"
		},
		{
			"bufferView":5,
			"componentType":5126,
			"count":924,
			"type":"VEC3"
		},
		{
			"bufferView":6,
			"componentType":5126,
			"count":924,
			"type":"VEC2"
		},
		{
			"bufferView":7,
			"componentType":5126,
			"count":192,
			"max":[
				1,
				0.12912659347057343,
				1
			],
			"min":[
				-1,
				0,
				-1
			],
			"type":"VEC3"
		},
		{
			"bufferView":8,
			"componentType":5126,
			"count":192,
			"type":"VEC3"
		},
		{
			"bufferView":9,
			"componentType":5126,
			"count":192,
			"type":"VEC2"
		},
		{
			"bufferView":10,
			"componentType":5123,
			"count":372,
			"type":"SCALAR"
		},
		{
			"bufferView":11,
			"componentType":5126,
			"count":576,
			"max":[
				1,
				0.12912659347057343,
				1
			],
			"min":[
				-1,
				0,
				-1
			],
			"type":"VEC3"
		},
		{
			"bufferView":12,
			"componentType":5126,
			"count":576,
			"type":"VEC3"
		},
		{
			"bufferView":13,
			"componentType":5126,
			"count":576,
			"type":"VEC2"
		},
		{
			"bufferView":14,
			"componentType":5123,
			"count":1140,
			"type":"SCALAR"
		},
		{
			"bufferView":15,
			"componentType":5126,
			"count":192,
			"max":[
				1,
				1,
				1
			],
			"min":[
				-1,
				-1,
				-1
			],
			"type":"VEC3"
		},
		{
			"bufferView":16,
			"componentType":5126,
			"count":192,
			"type":"VEC3"
		},
		{
			"bufferView":17,
			"componentType":5126,
			"count":192,
			"type":"VEC2"
		},
		{
			"bufferView":18,
			"componentType":5123,
			"count":372,
			"type":"SCALAR"
		},
		{
			"bufferView":19,
			"componentType":5126,
			"count":192,
			"max":[
				1,
				1,
				1
			],
			"min":[
				-1,
				-1,
				-1
			],
			"type":"VEC3"
		},
		{
			"bufferView":20,
			"componentType":5126,
			"count":192,
			"type":"VEC3"
		},
		{
			"bufferView":21,
			"componentType":5126,
			"count":192,
			"type":"VEC2"
		},
		{
			"bufferView":22,
			"componentType":5123,
			"count":372,
			"type":"SCALAR"
		},
		{
			"bufferView":23,
			"componentType":5126,
			"count":576,
			"max":[
				1,
				0.12912659347057343,
				1
			],
			"min":[
				-1,
				0,
				-1
			],
			"type":"VEC3"
		},
		{
			"bufferView":24,
			"componentType":5126,
			"count":576,
			"type":"VEC3"
		},
		{
			"bufferView":25,
			"componentType":5126,
			"count":576,
			"type":"VEC2"
		},
		{
			"bufferView":26,
			"componentType":5126,
			"count":576,
			"max":[
				1,
				0.12912659347057343,
				1
			],
			"min":[
				-1,
				0,
				-1
			],
			"type":"VEC3"
		},
		{
			"bufferView":27,
			"componentType":5126,
			"count":576,
			"type":"VEC3"
		},
		{
			"bufferView":28,
			"componentType":5126,
			"count":576,
			"type":"VEC2"
		},
		{
			"bufferView":29,
			"componentType":5126,
			"count":576,
			"max":[
				1,
				0.12912659347057343,
				1
			],
			"min":[
				-1,
				0,
				-1
			],
			"type":"VEC3"
		},
		{
			"bufferView":30,
			"componentType":5126,
			"count":576,
			"type":"VEC3"
		},
		{
			"bufferView":31,
			"componentType":5126,
			"count":576,
			"type":"VEC2"
		},
		{
			"bufferView":32,
			"componentType":5126,
			"count":576,
			"max":[
				1,
				0.12912659347057343,
				1
			],
			"min":[
				-1,
				0,
				-1
			],
			"type":"VEC3"
		},
		{
			"bufferView":33,
			"componentType":5126,
			"count":576,
			"type":"VEC3"
		},
		{
			"bufferView":34,
			"componentType":5126,
			"count":576,
			"type":"VEC2"
		},
		{
			"bufferView":35,
			"componentType":5126,
			"count":576,
			"max":[
				1,
				0.12912659347057343,
				1
			],
			"min":[
				-1,
				0,
				-1
			],
			"type":"VEC3"
		},
		{
			"bufferView":36,
			"componentType":5126,
			"count":576,
			"type":"VEC3"
		},
		{
			"bufferView":37,
			"componentType":5126,
			"count":576,
			"type":"VEC2"
		},
		{
			"bufferView":38,
			"componentType":5126,
			"count":1011,
			"max":[
				1,
				1,
				1
			],
			"min":[
				-1,
				-1,
				-1
			],
			"type":"VEC3"
		},
		{
			"bufferView":39,
			"componentType":5126,
			"count":1011,
			"type":"VEC3"
		},
		{
			"bufferView":40,
			"componentType":5126,
			"count":1011,
			"type":"VEC2"
		},
		{
			"bufferView":41,
			"componentType":5123,
			"count":1596,
			"type":"SCALAR"
		},
		{
			"bufferView":42,
			"componentType":5126,
			"count":1011,
			"max":[
				1,
				1,
				1
			],
			"min":[
				-1,
				-1,
				-1
			],
			"type":"VEC3"
		},
		{
			"bufferView":43,
			"componentType":5126,
			"count":1011,
			"type":"VEC3"
		},
		{
			"bufferView":44,
			"componentType":5126,
			"count":1011,
			"type":"VEC2"
		},
		{
			"bufferView":45,
			"componentType":5126,
			"count":188,
			"max":[
				1,
				1,
				1
			],
			"min":[
				-1,
				-1,
				-1
			],
			"type":"VEC3"
		},
		{
			"bufferView":46,
			"componentType":5126,
			"count":188,
			"type":"VEC3"
		},
		{
			"bufferView":47,
			"componentType":5126,
			"count":188,
			"type":"VEC2"
		},
		{
			"bufferView":48,
			"componentType":5123,
			"count":372,
			"type":"SCALAR"
		},
		{
			"bufferView":49,
			"componentType":5126,
			"count":328,
			"max":[
				1,
				1,
				1
			],
			"min":[
				-1,
				-1,
				-1
			],
			"type":"VEC3"
		},
		{
			"bufferView":50,
			"componentType":5126,
			"count":328,
			"type":"VEC3"
		},
		{
			"bufferView":51,
			"componentType":5126,
			"count":328,
			"type":"VEC2"
		},
		{
			"bufferView":52,
			"componentType":5123,
			"count":612,
			"type":"SCALAR"
		}
	],
	"bufferViews":[
		{
			"buffer":0,
			"byteLength":11088,
			"byteOffset":0,
			"target":34962
		},
		{
			"buffer":0,
			"byteLength":11088,
			"byteOffset":11088,
			"target":34962
		},
		{
			"buffer":0,
			"byteLength":7392,
			"byteOffset":22176,
			"target":34962
		},
		{
			"buffer":0,
			"byteLength":4488,
			"byteOffset":29568,
			"target":34963
		},
		{
			"buffer":0,
			"byteLength":11088,
			"byteOffset":34056,
			"target":34962
		},
		{
			"buffer":0,
			"byteLength":11088,
			"byteOffset":45144,
			"target":34962
		},
		{
			"buffer":0,
			"byteLength":7392,
			"byteOffset":56232,
			"target":34962
		},
		{
			"buffer":0,
			"byteLength":2304,
			"byteOffset":63624,
			"target":34962
		},
		{
			"buffer":0,
			"byteLength":2304,
			"byteOffset":65928,
			"target":34962
		},
		{
			"buffer":0,
			"byteLength":1536,
			"byteOffset":68232,
			"target":34962
		},
		{
			"buffer":0,
			"byteLength":744,
			"byteOffset":69768,
			"target":34963
		},
		{
			"buffer":0,
			"byteLength":6912,
			"byteOffset":70512,
			"target":34962
		},
		{
			"buffer":0,
			"byteLength":6912,
			"byteOffset":77424,
			"target":34962
		},
		{
			"buffer":0,
			"byteLength":4608,
			"byteOffset":84336,
			"target":34962
		},
		{
			"buffer":0,
			"byteLength":2280,
			"byteOffset":88944,
			"target":34963
		},
		{
			"buffer":0,
			"byteLength":2304,
			"byteOffset":91224,
			"target":34962
		},
		{
			"buffer":0,
			"byteLength":2304,
			"byteOffset":93528,
			"target":34962
		},
		{
			"buffer":0,
			"byteLength":1536,
			"byteOffset":95832,
			"target":34962
		},
		{
			"buffer":0,
			"byteLength":744,
			"byteOffset":97368,
			"target":34963
		},
		{
			"buffer":0,
			"byteLength":2304,
			"byteOffset":98112,
			"target":34962
		},
		{
			"buffer":0,
			"byteLength":2304,
			"byteOffset":100416,
			"target":34962
		},
		{
			"buffer":0,
			"byteLength":1536,
			"byteOffset":102720,
			"target":34962
		},
		{
			"buffer":0,
			"byteLength":744,
			"byteOffset":104256,
			"target":34963
		},
		{
			"buffer":0,
			"byteLength":6912,
			"byteOffset":105000,
			"target":34962
		},
		{
			"buffer":0,
			"byteLength":6912,
			"byteOffset":111912,
			"target":34962
		},
		{
			"buffer":0,
			"byteLength":4608,
			"byteOffset":118824,
			"target":34962
		},
		{
			"buffer":0,
			"byteLength":6912,
			"byteOffset":123432,
			"target":34962
		},
		{
			"buffer":0,
			"byteLength":6912,
			"byteOffset":130344,
			"target":34962
		},
		{
			"buffer":0,
			"byteLength":4608,
			"byteOffset":137256,
			"target":34962
		},
		{
			"buffer":0,
			"byteLength":6912,
			"byteOffset":141864,
			"target":34962
		},
		{
			"buffer":0,
			"byteLength":6912,
			"byteOffset":148776,
			"target":34962
		},
		{
			"buffer":0,
			"byteLength":4608,
			"byteOffset":155688,
			"target":34962
		},
		{
			"buffer":0,
			"byteLength":6912,
			"byteOffset":160296,
			"target":34962
		},
		{
			"buffer":0,
			"byteLength":6912,
			"byteOffset":167208,
			"target":34962
		},
		{
			"buffer":0,
			"byteLength":4608,
			"byteOffset":174120,
			"target":34962
		},
		{
			"buffer":0,
			"byteLength":6912,
			"byteOffset":178728,
			"target":34962
		},
		{
			"buffer":0,
			"byteLength":6912,
			"byteOffset":185640,
			"target":34962
		},
		{
			"buffer":0,
			"byteLength":4608,
			"byteOffset":192552,
			"target":34962
		},
		{
			"buffer":0,
			"byteLength":12132,
			"byteOffset":197160,
			"target":34962
		},
		{
			"buffer":0,
			"byteLength":12132,
			"byteOffset":209292,
			"target":34962
		},
		{
			"buffer":0,
			"byteLength":8088,
			"byteOffset":221424,
			"target":34962
		},
		{
			"buffer":0,
			"byteLength":3192,
			"byteOffset":229512,
			"target":34963
		},
		{
			"buffer":0,
			"byteLength":12132,
			"byteOffset":232704,
			"target":34962
		},
		{
			"buffer":0,
			"byteLength":12132,
			"byteOffset":244836,
			"target":34962
		},
		{
			"buffer":0,
			"byteLength":8088,
			"byteOffset":256968,
			"target":34962
		},
		{
			"buffer":0,
			"byteLength":2256,
			"byteOffset":265056,
			"target":34962
		},
		{
			"buffer":0,
			"byteLength":2256,
			"byteOffset":267312,
			"target":34962
		},
		{
			"buffer":0,
			"byteLength":1504,
			"byteOffset":269568,
			"target":34962
		},
		{
			"buffer":0,
			"byteLength":744,
			"byteOffset":271072,
			"target":34963
		},
		{
			"buffer":0,
			"byteLength":3936,
			"byteOffset":271816,
			"target":34962
		},
		{
			"buffer":0,
			"byteLength":3936,
			"byteOffset":275752,
			"target":34962
		},
		{
			"buffer":0,
			"byteLength":2624,
			"byteOffset":279688,
			"target":34962
		},
		{
			"buffer":0,
			"byteLength":1224,
			"byteOffset":282312,
			"target":34963
		}
	],
	"buffers":[
		{
			"byteLength":283536,
			"uri":"Smartphone2.bin"
		}
	]
}
