<svg id="Layer_1" data-name="Layer 1" xmlns="http://www.w3.org/2000/svg" viewBox="0 0 403.6 371.66"><defs><style>.cls-1,.cls-2,.cls-3{fill:#17ce92;}.cls-2{fill-rule:evenodd;}.cls-3{font-size:49.93px;font-family:CalistoMT, Calisto MT;opacity:0.96;}.cls-4{letter-spacing:-0.03em;}</style></defs><path class="cls-1" d="M250.27,67.78a194.65,194.65,0,0,0-34.08,2.81,189.51,189.51,0,0,0-38.41,10.79q-5.4,2.16-10.66,4.64c-2.22,1-4.43,2.13-6.61,3.26-35.33,18.22-65.09,46.83-83.69,82.06a189.87,189.87,0,0,0-21,71.21C51,295.84,69.25,348.89,102.09,390.64c7.17,9.11,15.19,18,19,28.95-3-8.69-21.36-21.08-27.53-29a214.58,214.58,0,0,1-45.14-122C46,211.29,68.13,153.69,110.29,114.4c36.41-33.93,86-54.52,135.82-55.37a201.09,201.09,0,0,1,133.72,48.21c33.05,28.27,57.39,67,67.15,109.44.64,2.76,1.21,5.54,1.72,8.32,12.87,70.4-15,146.8-70.26,192.33,36.44-42.26,63.93-94.56,66.24-150.31,2.73-65.76-32.1-131.45-87.21-167.45A198.89,198.89,0,0,0,250.27,67.78Z" transform="translate(-48.2 -59)"/><path class="cls-1" d="M250.28,58.29" transform="translate(-48.2 -59)"/><path class="cls-1" d="M374.06,262.58c10.88-5.59,18.23-16.8,31.3-18.22a23.75,23.75,0,0,1,12.54,2.13c2.43,1.14,4.77,4.2,7.12,5,1.23.42,9.88-.88,10.19,0-4-11-16.9-18-26.94-22.45a167.94,167.94,0,0,0-21.14-7.38c-1-.28-12.54-2.56-12.75-3.24-6-19.86-17.46-45.95-32.8-60.3a47.65,47.65,0,0,0-.27,8.22h-3.42a77.28,77.28,0,0,0-44.5-43.16c-8-3-17.3-4.76-25.74-2.38a25.85,25.85,0,0,0-11.64,7H242.4a25.93,25.93,0,0,0-11.65-7c-8.44-2.38-17.7-.64-25.74,2.38a77.28,77.28,0,0,0-44.5,43.16h-3.42a48.68,48.68,0,0,0-.26-8.22C141.48,172.43,130,198.52,124,218.38c-.21.68-11.79,3-12.75,3.24A167.94,167.94,0,0,0,90.13,229c-10,4.46-23,11.47-26.94,22.45.31-.86,9,.44,10.2,0,2.34-.78,4.68-3.84,7.11-5A23.75,23.75,0,0,1,93,244.36c13.07,1.42,20.42,12.63,31.3,18.22.41,2.5-.85,9-.85,10.57a59.55,59.55,0,0,0,2.19,16.47c3.62,12.5,11.43,23.87,22.8,30.38,1,.6,0,11.92,0,13.95,0,.49-3.72,3.8-4.15,4.48-2.71,4.23-4.23,10.83-2.59,15.58,3.81-4.05,6.34-9.29,10.58-13.19,14.33-13.18,28.3-2.56,42.5,4.32,16.36,7.93,36.64,7.76,54.43,6.44,17.79,1.32,38.07,1.49,54.43-6.44,14.21-6.88,28.17-17.5,42.51-4.32,4.23,3.9,6.76,9.14,10.57,13.19,1.64-4.75.12-11.35-2.59-15.58-.43-.68-4.15-4-4.15-4.48,0-2-1.09-13.35-.05-13.95,11.37-6.51,19.18-17.88,22.8-30.38a59.55,59.55,0,0,0,2.19-16.47C374.91,271.59,373.65,265.08,374.06,262.58Zm1.67-32.36c4.36-.59,6.18,1.56,6.18,1.56s-2.42-.68-6.18-1.56c-3.64.5-9,2.88-16.63,10-16.73,15.66-38.39,0-38.39,0s6.08-9.91,20.14-12.95C350.71,225.08,366.91,228.18,375.73,230.22Zm-29.74-52L365.76,218H337c-.1,0-.15,0-.11,0H337C338.25,217.67,349.28,212.34,346,178.25Zm-82.67-47.7c52.46-6.84,66.53,32.7,66.53,32.7-49.42-8.37-41.82,38-41.82,38L274,176.7c-7.22-25.32,19.77-30.2,19.77-30.2l-.76-8c-28.89,1.14-27,24.71-27,24.71C258,139.68,263.32,130.55,263.32,130.55Zm72.06,43.57c-27.75,10.26-38.78,41.44-38.78,41.44C279.21,168.15,335.38,174.12,335.38,174.12Zm-98.53-43.18s5.32,9.12-2.67,32.69c0,0,1.91-23.57-27-24.71l-.76,8s27,4.87,19.77,30.2l-14.06,24.56s7.6-46.38-41.82-38C170.32,163.63,184.38,124.1,236.85,130.94ZM199,215s-11-31.17-38.78-41.44C160.22,173.56,216.39,167.59,199,215Zm-48.37-34.63c-3,31.55,9.12,37.63,9.12,37.63H130.86Zm-25.81,49.85c8.82-2,25-5.14,34.87-3,14.07,3,20.15,12.95,20.15,12.95s-21.67,15.7-38.39,0c-7.6-7.11-13-9.49-16.63-10-3.76.88-6.18,1.56-6.18,1.56S120.45,229.63,124.82,230.22Zm0,19.95c-7.56-6.31-17-12.14-27-13,9.35-1.16,27.25-2.57,35.24,4.6,9.36,8.4,19.72,14.86,32.85,12.21a22.31,22.31,0,0,0,9.88-4.48c1.55-1.29,2.5-3,3.89-4.39,1.74-1.72,4.16-3.05,6.14-4.5a4.39,4.39,0,0,0,1.53-1.56c1.4-2.95-3.71-5.82-5.51-7.29a61.17,61.17,0,0,1-21.79-44.25c-.05-1.26.78-5.94.14-6.82,2.94,4,7.66,5.61,11.27,8.78,3.39,3,5.53,7.18,7.08,11.34,2.08,5.6,3.39,11.57,6.54,16.64,3.34,5.4,8.15,6.74,13.79,8.61,1.09.37-17.13,34.45-19,37.43-3.3,5.25-6.87,11.51-13.85,11.81s-13.81-3.42-19.49-7.07C138.65,263.1,132.09,256.2,124.86,250.17Zm9.87,19c8.37,15.21,34.6,12.55,34.6,12.55l-16,27.75C130.93,300.74,134.73,269.18,134.73,269.18Zm37.61,56.75s14.11-12.17,26.63-8.75c0,0-4.2,12,6.83,19.39C205.8,336.57,184.7,326.88,172.34,325.93Zm40.95,9.19c-5-2.87-9-7.66-8.14-13.73,1.09-8,9.43-11.25,16.6-8,10,4.57,14.41,17.94,16.91,27.78C229.94,340.15,221.09,339.62,213.29,335.12Zm71.35,0c-7.81,4.5-16.65,5-25.37,6.07,2.5-9.84,6.86-23.21,16.9-27.78,7.18-3.27,15.51,0,16.6,8C293.6,327.46,289.62,332.25,284.64,335.12Zm7.49,1.45c11-7.41,6.82-19.39,6.82-19.39,12.53-3.42,26.63,8.75,26.63,8.75C313.23,326.88,292.13,336.57,292.13,336.57Zm50.11-11.87c-4-4.41-9.25-8.48-14.06-12.06-4.57-3.4-9.72-6.26-15.36-7.09a19.49,19.49,0,0,0-12.12,2c-2.22,1.2-2.53,2.61-4.66,1.59-1.59-.77-3-4.06-4.35-5.33a13,13,0,0,0-8-3.69,13.21,13.21,0,0,0-8.5,3.1c-9.55,7.47-16.06,20.35-19.84,31.58,5.3-15.75,11.05-33.8,25-44.12.37-.28-7.58-2.23-9.15-1.74-3.16,1-5.85,4-8.23,6.19a44.22,44.22,0,0,0-12.7,21.44h-2.12a44.14,44.14,0,0,0-12.7-21.44c-2.38-2.22-5.07-5.18-8.23-6.19-1.57-.49-9.52,1.46-9.15,1.74,14,10.32,19.72,28.37,25,44.12-3.78-11.23-10.29-24.11-19.84-31.58a13.21,13.21,0,0,0-8.5-3.1,13,13,0,0,0-8,3.69c-1.37,1.27-2.76,4.56-4.35,5.33-2.13,1-2.44-.39-4.66-1.59a19.49,19.49,0,0,0-12.12-2c-5.64.83-10.79,3.69-15.36,7.09-4.81,3.58-10.07,7.65-14.06,12.06-1.21-11.61,7-22.51,12.19-32.23q8.7-16.14,17.83-32c10.13-17.77,21.37-34.87,31.69-52.52,9.76-16.71,20.89-35.28,25.93-54.1,1.52-5.7,2-11.83.24-17.48l4.1,0h2.12l4.1,0c-1.72,5.65-1.28,11.78.24,17.48,5,18.82,16.17,37.39,25.93,54.1,10.32,17.65,21.56,34.75,31.7,52.52,6,10.61,12,21.28,17.82,32C335.29,302.19,343.45,313.09,342.24,324.7Zm4.65-15.77-16-27.75s26.23,2.66,34.6-12.54C365.52,268.64,369.32,300.19,346.89,308.93Zm5.42-40.09c-5.69,3.64-12.52,7.36-19.5,7.07S322.26,269.35,319,264.1c-1.87-3-20.1-37.06-19-37.43,5.64-1.87,10.45-3.22,13.79-8.61,3.14-5.08,4.45-11,6.53-16.64,1.55-4.16,3.69-8.37,7.08-11.34,3.62-3.17,8.33-4.76,11.27-8.79-.64.88.19,5.57.14,6.83A61.15,61.15,0,0,1,317,232.36c-1.8,1.48-6.9,4.35-5.51,7.3a4.56,4.56,0,0,0,1.53,1.56c2,1.45,4.4,2.78,6.15,4.49,1.39,1.37,2.34,3.11,3.88,4.4a22.31,22.31,0,0,0,9.88,4.48c13.14,2.65,23.49-3.81,32.86-12.21,8-7.17,25.89-5.77,35.23-4.6-10,.91-19.41,6.74-27,13.05C366.79,256.86,360.23,263.76,352.31,268.84Z" transform="translate(-48.2 -59)"/><path class="cls-1" d="M185.92,281.15H314.08L249,181.29Zm16.18-6.08L249,198.31l46.51,76.76Z" transform="translate(-48.2 -59)"/><path class="cls-1" d="M281.72,265.84,250,216.77,216.84,265.3ZM250,229.57l5,8.88H244.34Zm0,17.11h11.69l8.84,9.63H229.51l8.84-9.63Z" transform="translate(-48.2 -59)"/><path class="cls-2" d="M216.75,103.51c2.25.71,2.78-2.11,1.28-6.92-1.1-3.52-3.08-6.39-5.07-7.22s-1.58-.75-2.77.08c-1.37,1-1.32,3.75.17,6.7C211.69,98.75,215.43,103.12,216.75,103.51ZM210,90.73c.66-1.41,2-1.41,3.88,0s3.53,4.85,4.14,8.11c.84,4.54-.48,5.25-3.57,1.9C210.85,96.9,209,92.85,210,90.73Z" transform="translate(-48.2 -59)"/><path class="cls-2" d="M184.8,114.35c1.19.71,1.46.75,2.21.22s.79-.79.26-2.77c-1.23-4.54-6.48-12-8.46-12a3,3,0,0,0-1.76.88c-1.15,1.14-1.11,2.2.17,4.76S183,113.25,184.8,114.35Zm-7.75-12.78c.75-1.45,2.33-1.14,4,.75,3.26,3.62,6.7,10.67,5.64,11.73-.75.75-2.55-.62-5.42-3.93C178.06,106.25,176.34,102.85,177.05,101.57Z" transform="translate(-48.2 -59)"/><path class="cls-2" d="M153.69,128.41a7.18,7.18,0,0,0,.66,2.65c.84,1.63,2.34,1.72,4.05.26,1.11-1,1.24-1.32,1.19-3.88a11.69,11.69,0,0,0-4.09-8.85c-2.12-1.9-4.1-2.16-5.91-.75-2.29,1.8-1.94,3.79,1,5.24A6.11,6.11,0,0,1,153.69,128.41ZM150,118.28c1.63-1.28,3.39-.88,5.51,1.19,4.27,4.18,4.8,12,.79,12-1.36,0-1.5-.18-2.2-3.84-.53-3-1.45-4.36-3.61-5.46S148.27,119.69,150,118.28Z" transform="translate(-48.2 -59)"/><path class="cls-2" d="M124,142.65c3.26,3.21,7.27,4.71,8.55,3.17.79-.92-.14-4.1-1.81-6.08-2.56-3.09-7.23-4.36-8.55-2.34C121.21,138.9,121.69,140.44,124,142.65Zm3.43-4.67a7.42,7.42,0,0,1,3.84,3.74c1,1.94,1.1,3.79.22,4.14-2.07.8-9.08-4.62-9.08-7.05C122.4,136.83,124.47,136.48,127.42,138Z" transform="translate(-48.2 -59)"/><path class="cls-2" d="M113.14,169.31c0-.62-2.77-3.48-4-4.14-1.54-.8-1.94-.8-2.77.09-1.46,1.41-.49,3.57,2.24,5C110.41,171.16,113.14,170.63,113.14,169.31Zm-6.83-2.95c.44-1.41,2.16-1.15,4.19.66,2.69,2.42,2.2,3.83-.93,2.82C107.37,169.09,105.92,167.55,106.31,166.36Z" transform="translate(-48.2 -59)"/><path class="cls-2" d="M281.65,103.51c1.32-.39,5.06-4.76,6.39-7.36,1.49-3,1.54-5.73.17-6.7-1.19-.83-.92-.83-2.77-.08s-4,3.7-5.07,7.22C278.87,101.4,279.4,104.22,281.65,103.51Zm-1.28-4.67c.62-3.26,2.42-6.79,4.14-8.11s3.22-1.41,3.88,0c1,2.12-.84,6.17-4.45,10C280.85,104.09,279.53,103.38,280.37,98.84Z" transform="translate(-48.2 -59)"/><path class="cls-2" d="M313.6,114.35c1.8-1.1,6.26-6.39,7.58-8.94s1.32-3.62.17-4.76a3,3,0,0,0-1.76-.88c-2,0-7.23,7.49-8.46,12-.53,2-.49,2.2.26,2.77S312.41,115.06,313.6,114.35Zm3.7-12c1.72-1.89,3.3-2.2,4.05-.75.71,1.28-1,4.68-4.27,8.55-2.87,3.31-4.67,4.68-5.42,3.93C310.6,113,314,105.94,317.3,102.32Z" transform="translate(-48.2 -59)"/><path class="cls-2" d="M340,131.32c1.71,1.46,3.21,1.37,4.05-.26a7.18,7.18,0,0,0,.66-2.65,6.11,6.11,0,0,1,3.13-5.33c2.91-1.45,3.26-3.44,1-5.24-1.81-1.41-3.79-1.15-5.91.75a11.69,11.69,0,0,0-4.09,8.85C338.76,130,338.89,130.35,340,131.32Zm2.86-11.85c2.12-2.07,3.88-2.47,5.51-1.19s1.59,2.86-.49,3.92-3.08,2.51-3.61,5.46c-.7,3.66-.84,3.84-2.2,3.84C338.06,131.5,338.59,123.65,342.86,119.47Z" transform="translate(-48.2 -59)"/><path class="cls-2" d="M374.42,142.65c2.29-2.21,2.77-3.75,1.8-5.25-1.32-2-6-.75-8.55,2.34-1.67,2-2.6,5.16-1.8,6.08C367.14,147.36,371.15,145.86,374.42,142.65Zm-7.28-.93A7.42,7.42,0,0,1,371,138c2.95-1.5,5-1.15,5,.83,0,2.43-7,7.85-9.08,7.05C366,145.51,366.17,143.66,367.14,141.72Z" transform="translate(-48.2 -59)"/><path class="cls-2" d="M389.8,170.24c2.73-1.41,3.7-3.57,2.24-5-.83-.89-1.23-.89-2.77-.09-1.24.66-4,3.52-4,4.14C385.26,170.63,388,171.16,389.8,170.24ZM387.9,167c2-1.81,3.75-2.07,4.19-.66.39,1.19-1.06,2.73-3.26,3.48C385.7,170.85,385.21,169.44,387.9,167Z" transform="translate(-48.2 -59)"/><ellipse class="cls-1" cx="203.6" cy="33.73" rx="7.47" ry="14.72"/><text class="cls-3" transform="translate(74 360.88)"><tspan class="cls-4">A</tspan><tspan x="37.05" y="0">Ayur Minds</tspan></text></svg>